<svg xmlns="http://www.w3.org/2000/svg" viewBox="0 0 500 500"><g id="freepik--background-complete--inject-31"><path d="M328.543,279.737c-.833-4.021-2.427-7.759-4.606-11.079l3.967-4.791-8.481-8.481-4.792,3.966c-3.32-2.178-7.058-3.772-11.078-4.605l-.582-6.176h-11.994l-.582,6.176c-4.02,.834-7.759,2.427-11.078,4.605l-4.792-3.966-8.481,8.481,3.967,4.792c-2.179,3.32-3.772,7.058-4.606,11.078l-6.176,.582v11.993l6.176,.582c.834,4.02,2.427,7.758,4.606,11.078l-3.967,4.792,8.481,8.481,4.792-3.968c3.319,2.18,7.058,3.772,11.078,4.606l.582,6.176h11.994l.582-6.176c4.02-.833,7.758-2.427,11.078-4.606l4.792,3.968,8.481-8.481-3.967-4.791c2.179-3.321,3.772-7.058,4.606-11.078l6.176-.582v-11.993l-6.176-.582Zm-15.332,6.579c0,8.967-7.269,16.237-16.237,16.237s-16.237-7.27-16.237-16.237,7.269-16.237,16.237-16.237,16.237,7.27,16.237,16.237Z" style="fill:#f0f0f0;"></path><path d="M357.084,102.519c-1.102-5.316-3.208-10.258-6.089-14.648l5.245-6.335-11.213-11.214-6.336,5.244c-4.39-2.88-9.332-4.987-14.647-6.089l-.769-8.166h-15.858l-.769,8.166c-5.315,1.102-10.258,3.209-14.647,6.089l-6.335-5.244-11.214,11.214,5.245,6.336c-2.881,4.389-4.987,9.331-6.09,14.647l-8.166,.77v15.857l8.166,.77c1.103,5.315,3.209,10.257,6.09,14.647l-5.245,6.335,11.214,11.214,6.335-5.246c4.389,2.882,9.332,4.988,14.647,6.09l.769,8.166h15.858l.769-8.165c5.315-1.102,10.258-3.209,14.647-6.091l6.336,5.246,11.213-11.214-5.245-6.335c2.881-4.39,4.988-9.332,6.089-14.647l8.165-.77v-15.857l-8.165-.77Zm-20.271,8.698c0,11.856-9.611,21.468-21.468,21.468s-21.468-9.612-21.468-21.468,9.611-21.468,21.468-21.468,21.468,9.611,21.468,21.468Z" style="fill:#f0f0f0;"></path><path d="M162.219,81.227c-.612-2.951-1.781-5.694-3.38-8.131l2.911-3.516-6.224-6.225-3.517,2.911c-2.437-1.598-5.18-2.768-8.13-3.38l-.427-4.533h-8.803l-.427,4.533c-2.95,.612-5.694,1.781-8.13,3.38l-3.517-2.911-6.224,6.225,2.911,3.517c-1.599,2.436-2.768,5.18-3.38,8.13l-4.533,.427v8.802l4.533,.427c.612,2.95,1.781,5.693,3.38,8.13l-2.911,3.517,6.224,6.224,3.517-2.912c2.436,1.6,5.18,2.769,8.13,3.38l.427,4.533h8.803l.427-4.532c2.95-.612,5.694-1.781,8.13-3.381l3.517,2.912,6.224-6.224-2.911-3.516c1.599-2.437,2.768-5.18,3.38-8.131l4.532-.427v-8.802l-4.532-.427Zm-11.252,4.828c0,6.581-5.335,11.916-11.916,11.916s-11.916-5.335-11.916-11.916,5.335-11.917,11.916-11.917,11.916,5.335,11.916,11.917Z" style="fill:#f0f0f0;"></path><path d="M145.761,320.746c-.28-1.352-.816-2.609-1.548-3.725l1.334-1.611-2.851-2.851-1.611,1.333c-1.116-.732-2.373-1.268-3.724-1.548l-.196-2.076h-4.032l-.196,2.076c-1.352,.28-2.608,.816-3.724,1.548l-1.611-1.333-2.851,2.851,1.334,1.611c-.732,1.116-1.268,2.373-1.548,3.725l-2.076,.196v4.032l2.076,.196c.28,1.352,.816,2.608,1.548,3.724l-1.334,1.611,2.851,2.851,1.611-1.334c1.116,.733,2.373,1.268,3.724,1.549l.196,2.076h4.032l.196-2.076c1.351-.28,2.608-.816,3.724-1.549l1.611,1.334,2.851-2.851-1.334-1.611c.733-1.116,1.268-2.373,1.548-3.724l2.076-.196v-4.032l-2.076-.196Zm-5.154,2.212c0,3.015-2.444,5.459-5.459,5.459s-5.459-2.444-5.459-5.459,2.444-5.459,5.459-5.459,5.459,2.444,5.459,5.459Z" style="fill:#f0f0f0;"></path><path d="M60.942,161.801c-.28-1.352-.816-2.609-1.548-3.725l1.334-1.611-2.851-2.851-1.611,1.333c-1.116-.732-2.373-1.268-3.725-1.548l-.195-2.076h-4.032l-.196,2.076c-1.352,.28-2.608,.816-3.724,1.548l-1.611-1.333-2.851,2.851,1.334,1.611c-.733,1.116-1.268,2.373-1.548,3.725l-2.076,.196v4.032l2.076,.196c.28,1.352,.816,2.608,1.548,3.724l-1.334,1.611,2.851,2.851,1.611-1.334c1.116,.733,2.373,1.268,3.724,1.548l.196,2.076h4.032l.195-2.076c1.352-.28,2.608-.816,3.725-1.549l1.611,1.334,2.851-2.851-1.334-1.611c.733-1.116,1.268-2.373,1.548-3.725l2.076-.196v-4.032l-2.076-.196Zm-5.154,2.212c0,3.015-2.444,5.459-5.459,5.459s-5.459-2.444-5.459-5.459,2.444-5.459,5.459-5.459,5.459,2.444,5.459,5.459Z" style="fill:#f0f0f0;"></path><path d="M444.96,102.989c-.437-2.107-1.271-4.065-2.413-5.805l2.079-2.511-4.444-4.444-2.511,2.078c-1.739-1.141-3.698-1.976-5.805-2.413l-.305-3.236h-6.284l-.305,3.236c-2.106,.437-4.065,1.272-5.804,2.413l-2.511-2.078-4.444,4.444,2.078,2.511c-1.142,1.739-1.976,3.698-2.413,5.805l-3.236,.305v6.284l3.236,.305c.437,2.106,1.272,4.065,2.413,5.804l-2.078,2.511,4.444,4.444,2.511-2.079c1.739,1.142,3.698,1.977,5.804,2.413l.305,3.236h6.284l.305-3.236c2.106-.437,4.065-1.272,5.805-2.414l2.511,2.079,4.444-4.444-2.079-2.51c1.142-1.74,1.977-3.698,2.413-5.805l3.236-.305v-6.284l-3.236-.305Zm-8.033,3.447c0,4.698-3.809,8.507-8.508,8.507s-8.507-3.809-8.507-8.507,3.809-8.508,8.507-8.508,8.508,3.809,8.508,8.508Z" style="fill:#f0f0f0;"></path><path d="M396.215,72.059c-.28-1.351-.815-2.607-1.548-3.723l1.333-1.61-2.85-2.85-1.61,1.333c-1.116-.732-2.372-1.267-3.722-1.547l-.195-2.075h-4.03l-.196,2.075c-1.351,.28-2.607,.815-3.722,1.547l-1.61-1.333-2.85,2.85,1.333,1.61c-.732,1.115-1.267,2.372-1.548,3.722l-2.075,.196v4.03l2.075,.196c.28,1.351,.815,2.607,1.548,3.722l-1.333,1.61,2.85,2.85,1.61-1.333c1.115,.732,2.371,1.267,3.722,1.548l.196,2.075h4.03l.195-2.075c1.351-.28,2.607-.815,3.722-1.548l1.61,1.333,2.85-2.85-1.333-1.61c.732-1.116,1.268-2.372,1.548-3.722l2.075-.196v-4.03l-2.075-.196Zm-5.152,2.211c0,3.013-2.443,5.456-5.456,5.456s-5.456-2.443-5.456-5.456,2.443-5.456,5.456-5.456,5.456,2.443,5.456,5.456Z" style="fill:#f0f0f0;"></path><g><g><g><path d="M443.92,330.198h-180.746c-3.232,0-5.862-2.63-5.862-5.862V61.062c0-3.232,2.63-5.862,5.862-5.862h180.746c3.232,0,5.862,2.629,5.862,5.862V324.335c0,3.233-2.63,5.862-5.862,5.862ZM263.174,55.45c-3.095,0-5.612,2.518-5.612,5.612V324.335c0,3.095,2.518,5.612,5.612,5.612h180.746c3.095,0,5.612-2.517,5.612-5.612V61.062c0-3.094-2.518-5.612-5.612-5.612h-180.746Z" style="fill:#e0e0e0;"></path><path d="M235.493,330.198H54.746c-3.232,0-5.862-2.63-5.862-5.862V61.062c0-3.232,2.629-5.862,5.862-5.862H235.493c3.232,0,5.862,2.629,5.862,5.862V324.335c0,3.233-2.63,5.862-5.862,5.862ZM54.746,55.45c-3.094,0-5.612,2.518-5.612,5.612V324.335c0,3.095,2.518,5.612,5.612,5.612H235.493c3.095,0,5.612-2.517,5.612-5.612V61.062c0-3.094-2.518-5.612-5.612-5.612H54.746Z" style="fill:#e0e0e0;"></path></g><rect x="0" y="391.267" width="500" height=".25" style="fill:#e0e0e0;"></rect></g><g><rect x="51.672" y="405.531" width="16.06" height=".25" style="fill:#e0e0e0;"></rect><rect x="170.352" y="402.821" width="53.53" height=".25" style="fill:#e0e0e0;"></rect><rect x="68.732" y="414.821" width="36.25" height=".25" style="fill:#e0e0e0;"></rect><rect x="378.352" y="402.691" width="43.19" height=".25" style="fill:#e0e0e0;"></rect><rect x="430.452" y="402.691" width="6.33" height=".25" style="fill:#e0e0e0;"></rect><rect x="316.212" y="408.921" width="53.89" height=".25" style="fill:#e0e0e0;"></rect></g></g><g id="freepik--freepik--Plant--inject-111--inject-31"><path d="M283.855,426.932c.836-10.534,6.619-21.193,15.919-28.429,2.323-1.801,7.202-5.372,3.246-7.258-4.519-2.158-13.188,7.918-14.403,9.781,2.566-8.027,10.341-13.842,18.777-17.172,4.169-1.646,8.144-3.206,3.703-5.652s-14.053,3.486-16.279,6.032c5.268-5.877,11.925-11.761,18.747-15.278,7.532-3.882,4.13-10.356-3.635-5.349-4.811,3.105-12.722,10.868-12.722,10.868,0,0,12.43-19.943,8.679-21.737-4.859-2.329-13.373,24.842-15.725,30.199,.632-4.441,1.224-15.185-2.916-15.651-3.781-.419-2.857,26.333-3.732,31.053-.554,2.057-.807,3.105-1.244,5.178-.408-3.563-2.916-12.957-6.667-11.87-3.188,.916-1.215,7.949-.389,11.288,2.002,8.081,4.024,15.899,4.043,24.19l4.597-.194Z" style="fill:#f0f0f0;"></path><path d="M276.963,431.519c-.855-13.761-6.897-27.684-16.607-37.128-2.419-2.35-7.504-7.017-3.419-9.479,4.709-2.812,13.761,10.342,15.017,12.769-2.667-10.479-10.786-18.068-19.581-22.419-4.35-2.154-8.496-4.179-3.863-7.376,4.632-3.197,14.667,4.556,16.974,7.872-5.496-7.692-12.436-15.385-19.547-19.949-7.855-5.06-4.273-13.521,3.786-6.983,5.068,4.051,13.308,14.162,13.308,14.162,0,0-12.957-26.034-9.043-28.427,5.026-3.077,13.94,32.479,16.393,39.427-.65-5.795-1.265-19.829,3.094-20.436,3.94-.547,2.974,34.376,3.889,40.547,.581,2.692,.855,4.043,1.291,6.761,.436-4.65,3.026-16.915,6.966-15.496,3.316,1.197,1.265,10.376,.402,14.735-2.094,10.547-4.205,20.761-4.214,31.581l-4.846-.162Z" style="fill:#e6e6e6;"></path><polygon points="261.955 424.641 266.395 449.005 292.669 449.005 297.376 424.641 261.955 424.641" style="fill:#e0e0e0;"></polygon><rect x="258.782" y="417.614" width="42.247" height="8.13" style="fill:#e0e0e0;"></rect></g></g><g id="freepik--Shadow--inject-31"><path d="M458.875,454.435c0,3.387-93.517,6.132-208.875,6.132s-208.875-2.746-208.875-6.132,93.516-6.132,208.875-6.132,208.875,2.746,208.875,6.132Z" style="fill:#ebebeb;"></path></g><g id="freepik--Character_1--inject-31"><g><path d="M74.575,203.045c.968,4.839,3.174,14.516-.174,17.758,0,0,1.345,4.839,10.287,4.839,9.823,0,4.665-4.839,4.665-4.839-5.371-1.278-5.265-5.255-4.345-8.99l-10.432-8.768Z" style="fill:#b97964;"></path><path d="M94.819,194.168c-.119-.001-.233-.048-.318-.132-.167-.171-.167-.443,0-.614,1.002-.97,2.407-1.406,3.782-1.173,.23,.053,.374,.282,.321,.512l-.003,.014c-.048,.231-.275,.379-.506,.331l-.009-.002c-1.092-.193-2.209,.159-2.993,.943-.071,.076-.17,.119-.274,.121Z" style="fill:#263238;"></path><path d="M96.157,199.77c.261,1.801,.77,3.557,1.513,5.218-.87,.359-1.855,.31-2.686-.132l1.173-5.087Z" style="fill:#a24e3f;"></path><path d="M95.784,198.378c-.164,.724,.088,1.403,.559,1.513,.471,.11,.987-.384,1.096-1.096s-.077-1.392-.548-1.513-.932,.373-1.107,1.096Z" style="fill:#263238;"></path><path d="M96.738,197.26l1.842-.088s-1.195,1.151-1.842,.088Z" style="fill:#263238;"></path><path d="M72.136,190.156c-1.502,9.001-2.324,12.772,1.096,18.385,5.153,8.431,16.511,8.376,20.655,0,3.738-7.51,5.558-20.962-2.291-26.542-5.528-4.001-13.252-2.762-17.253,2.766-1.155,1.595-1.911,3.444-2.207,5.391Z" style="fill:#b97964;"></path><path d="M83.197,177.742c7.509-3.085,15.35-1.016,16.106,6.789,.756,7.806-8.035,15.239-8.035,15.239l-8.071-22.028Z" style="fill:#263238;"></path><path d="M86.816,198.005c-.206,1.757,.287,3.525,1.37,4.923,1.458,1.831,3.541,.866,4.276-1.217,.669-1.875,.702-5.098-1.305-6.183-1.464-.754-3.262-.177-4.016,1.287-.19,.37-.301,.775-.325,1.191Z" style="fill:#b97964;"></path><path d="M90.515,202.524c-.056,0-.111-.019-.158-.056-.929-.756-1.491-1.969-1.467-3.166,.009-.491,.114-.88,.32-1.19,.275-.414,.736-.646,1.174-.589,.137,.018,.234,.143,.216,.28-.018,.137-.149,.236-.28,.216-.251-.038-.526,.117-.695,.37-.152,.228-.229,.529-.236,.922-.021,1.046,.471,2.107,1.282,2.769,.107,.087,.124,.245,.036,.352-.049,.061-.122,.092-.194,.092Z" style="opacity:.3;"></path><path d="M64.794,241.767c-.455-.014-3.605,20.048-3.394,20.637,.777,2.17,23.94-2.676,23.94-2.676l1.46,6.193s-10.114,4.911-20.993,6.686c-11.226,1.832-15.425-3.14-15.477-10.754-.048-6.977,2.838-23.942,2.838-23.942l11.627,3.855Z" style="fill:#b97964;"></path><path d="M139.183,230.89c-2.754,4.078-5.863,7.884-9.016,11.641-1.621,1.849-24.228,26.791-25.903,28.586l-2.493,2.723c-.877,1.085-2.28,1.694-3.796,1.649-1.671-.002-3.145-1.207-3.368-2.754-.252-1.396,.206-2.776,1.24-3.732l2.557-2.664c1.686-1.791,24.512-26.558,26.255-28.305,3.562-3.431,6.36-7.573,10.328-10.668,.876-.712,3.09,.179,3.924,1.042,.69,.713,.801,1.734,.272,2.482h0Z" style="fill:#263238;"></path><path d="M103.61,276.961l-35.516,4.993c-5.252,6.88-5.855,17.602-5.487,28.997,.964,17.827,5.121,44.258,5.529,50.27,.023,.002,.391-.002,.414,0-.027,4.601-2.897,20.105-2.901,27.012-.013,23.53,2.764,60.44,2.764,60.44l2.135,6.348,7.219-5.469s12.432-82.591,12.59-87.489c.017-.544,.039-1.099,.062-1.658l.489-8.557c.526-7.826,1.228-16.535,1.447-25.335l.815-14.267c10.356-3.731,15.134-16.37,16.879-19.041-3.013-9.975-3.826-11.933-6.439-16.242Z" style="fill:#b97964;"></path><path d="M118.774,350.839c-4.494-43.645-9.792-61.893-9.792-61.893l-32.798,9.411,20.482,63.497c-3.106,13.47-6.622,55.646-4.42,89.519l9.413-1.337,13.794-70.497c1.385-7.784,4.178-20.373,3.321-28.7Z" style="fill:#b97964;"></path><g><path d="M78.913,448.344h-3.052c-.691,0-1.33,.349-1.738,.907-1.76,2.404-3.083,1.495-4.998-.765-1.217-.142-1.545,1.255-1.644,1.63l-2.282,8.301c-.198,.693,.203,1.416,.896,1.614,.123,.035,.251,.052,.379,.05h24.185c3.846,0,4.644-3.876,3.059-4.235-7.125-1.574-12.17-3.671-14.372-5.744-.408-.363,.011-.634-.433-1.758Z" style="fill:#263238;"></path><path d="M85.806,449.17c-.538-.381-1.982,.017-3.218,.475,.878-.723,1.639-1.587,1.564-2.159-.02-.209-.169-.458-.688-.528-1.995-.228-2.901,3.167-2.982,3.624-.92,.261-1.742,.842-2.254,1.655-.074,.116-.039,.271,.078,.345,.042,.025,.087,.038,.133,.038,.083,0,.164-.041,.211-.117,.529-.839,1.432-1.421,2.415-1.555,.032-.004,.051-.03,.077-.045,.766,.15,1.541,.252,2.321,.271,.723,.069,1.449-.095,2.073-.468,.321-.231,.513-.601,.518-.996,.027-.212-.07-.421-.249-.538Zm-2.551-1.913l.14,.01c.389,.04,.389,.179,.389,.229,.11,.608-1.634,2.172-2.88,2.83,.259-.877,1.026-3.069,2.352-3.069Zm2.033,3.159c-.856,.64-2.903,.376-4.039,.167,.053-.03,.108-.064,.163-.097,1.568-.673,3.649-1.38,4.155-1.027,.078,.048,.118,.14,.1,.229-.016,.286-.154,.551-.379,.727Zm-2.325,1.961c-.983,.134-1.886,.716-2.415,1.555-.047,.076-.128,.117-.211,.117-.046,0-.092-.013-.133-.038-.117-.074-.152-.229-.078-.345,.607-.964,1.643-1.631,2.771-1.785,.133-.015,.263,.077,.281,.214,.019,.137-.077,.264-.214,.282Zm2.574,.918c.019,.137-.077,.264-.214,.282-.982,.134-1.885,.715-2.415,1.556-.047,.075-.129,.116-.211,.116-.046,0-.092-.013-.133-.038-.117-.074-.152-.229-.078-.346,.607-.963,1.643-1.63,2.771-1.784,.131-.013,.262,.077,.281,.214Z" style="fill:#407BFF;"></path><polygon points="90.017 454.932 89.828 460.032 86.907 460.032 88.515 454.497 90.017 454.932" style="opacity:.3;"></polygon></g><g><path d="M102.132,448.53h-3.053c-.691,0-1.33,.349-1.738,.907-1.76,2.404-3.083,1.495-4.998-.765-1.217-.142-1.545,1.255-1.644,1.63l-2.282,8.301c-.198,.693,.203,1.416,.896,1.614,.123,.035,.251,.052,.379,.05h24.185c3.847,0,4.644-3.877,3.059-4.235-7.125-1.575-12.17-3.671-14.372-5.744-.408-.363,.011-.634-.433-1.758Z" style="fill:#263238;"></path><path d="M109.026,449.355c-.538-.381-1.982,.017-3.218,.475,.878-.723,1.639-1.587,1.564-2.159-.02-.209-.169-.458-.688-.528-1.995-.228-2.901,3.169-2.982,3.625-.92,.261-1.742,.841-2.254,1.654-.074,.116-.039,.271,.078,.345,.042,.025,.087,.038,.133,.038,.083,0,.164-.041,.211-.117,.529-.84,1.432-1.421,2.415-1.554,.033-.004,.052-.031,.079-.046,.766,.149,1.54,.252,2.32,.27,.723,.069,1.449-.095,2.073-.468,.321-.231,.513-.601,.518-.997,.027-.212-.07-.421-.249-.538Zm-2.551-1.913l.14,.01c.389,.04,.389,.179,.389,.229,.11,.608-1.634,2.172-2.88,2.83,.259-.877,1.026-3.069,2.352-3.069Zm2.033,3.159c-.856,.64-2.903,.376-4.039,.167,.053-.03,.108-.063,.163-.097,1.567-.673,3.649-1.38,4.155-1.027,.078,.048,.117,.14,.1,.229-.016,.286-.154,.551-.379,.727Zm-2.325,1.961c-.983,.134-1.886,.716-2.415,1.555-.047,.076-.128,.117-.211,.117-.046,0-.092-.013-.133-.038-.117-.074-.152-.229-.078-.345,.606-.964,1.642-1.631,2.77-1.785,.132-.014,.262,.077,.281,.214s-.077,.264-.214,.282Zm2.574,.918c.019,.137-.077,.264-.214,.282-.982,.134-1.885,.715-2.415,1.556-.047,.075-.129,.116-.211,.116-.046,0-.092-.013-.133-.038-.117-.074-.152-.229-.078-.346,.607-.963,1.643-1.63,2.77-1.784,.13-.011,.262,.077,.281,.214Z" style="fill:#407BFF;"></path></g><polygon points="68.391 363.697 68.55 361.22 90.387 361.22 89.983 365.571 68.391 363.697" style="isolation:isolate; opacity:.2;"></polygon><polygon points="96.462 361.22 96.666 361.853 95.851 365.99 117.545 368.003 118.499 361.22 96.462 361.22" style="isolation:isolate; opacity:.2;"></polygon><path d="M66.72,278.863s-8.153,19.654-6.694,33.294c1.462,13.669,4.405,49.063,4.405,49.063h56.839s-1.345-20.592-2.987-30.994c-1.642-10.401-5.63-36.061-11.071-46.224-5.442-10.163-40.492-5.14-40.492-5.14Z" style="fill:#407BFF;"></path><path d="M90.688,343.044c-3.711-16.331-10.079-20.822-12.509-23.69l14.49,32.361-1.982-8.671Z" style="isolation:isolate; opacity:.2;"></path><path d="M102.049,248.473c.11-1.106,.205-2.192,.288-3.255l10.124-1.908s-1.721-7.305-6.124-15.665c-.873-1.658-2.337-2.936-4.096-3.582-.877-.322-1.648-.635-2.345-.929-1.411-.868-3.291-1.591-5.749-2.393-3.627-1.183-7.863-2.128-7.863-2.128l-11.022-.603s-13.545,3.141-18.721,7.448c-3.918,2.137-5.748,16.035-5.748,16.035l9.917,4.299c.926,3.004,3.948,14.641,4.204,15.7,1.463,6.046,1.622,7.482,1.918,10.935-.409,2.706-2.558,9.954-3.463,12.724,0,0,14.154,13.491,45.432,.455l-5.388-14.141c-.942-5.793-1.697-19.619-1.363-22.992Z" style="fill:#407BFF;"></path><path d="M102.049,248.473c.11-1.106,.205-2.192,.288-3.255l10.124-1.908s-1.721-7.305-6.124-15.665c-.873-1.658-2.337-2.936-4.096-3.582-.877-.322-1.648-.635-2.345-.929-1.411-.868-3.291-1.591-5.749-2.393-3.627-1.183-7.863-2.128-7.863-2.128l-11.022-.603s-13.545,3.141-18.721,7.448c-3.918,2.137-5.748,16.035-5.748,16.035l9.917,4.299c.926,3.004,3.948,14.641,4.204,15.7,1.463,6.046,1.622,7.482,1.918,10.935-.409,2.706-2.558,9.954-3.463,12.724,0,0,14.154,13.491,45.432,.455l-5.388-14.141c-.942-5.793-1.697-19.619-1.363-22.992Z" style="opacity:.4;"></path><path d="M110.929,243.599l4.987,12.509,8.626-11.364,6.752,2.822s-5.289,8.882-9.464,17.868c-4.446,9.568-10.447,7.904-14.074,1.21-3.324-6.135-8.863-20.774-8.863-20.774l12.037-2.269Z" style="fill:#b97964;"></path><path d="M136.027,238.799c-.046,1.176-3.818,7.121-3.818,7.121l-4.501,8.092-4.667-6.946,2.078-2.993c-.656-.992-1.502-4.587-1.009-5.739,.531-1.244,1.759-2.144,1.759-2.144l.591-.002s.033,2.425,1.6,2.52c1.475,.089,4.245-.362,4.991-.635,1.035-.38,2.977-2.588,2.977-2.588,0,0,.612,.449,.509,1.346s-.656,1.519-.656,1.519l.147,.45Z" style="fill:#b97964;"></path><path d="M184.271,221.694c-8.751,11.346-23.776,15.828-37.313,11.131-3.411-1.181-6.603-2.916-9.45-5.135-14.581-11.268-17.267-32.223-5.999-46.804,11.268-14.581,32.223-17.267,46.804-5.999,14.58,11.267,17.267,32.219,6.002,46.8l-.045,.007Z" style="fill:#fff; isolation:isolate; opacity:.3;"></path><path d="M188.537,188.919l-62.644,8.037c.056-.498,.105-.978,.18-1.471,.475-3.156,1.418-6.224,2.797-9.102h0l54.098-6.94c2.387,2.816,4.271,6.021,5.57,9.476Z" style="fill:#fff; isolation:isolate; opacity:.4;"></path><path d="M189.261,209.652l-58.893,7.539c-2.574-4.247-4.13-9.033-4.547-13.982l64.302-8.252c.843,4.899,.548,9.927-.862,14.694Z" style="fill:#fff; isolation:isolate; opacity:.4;"></path><path d="M181.017,170.79c-16.356-12.594-39.825-9.544-52.419,6.813-12.594,16.357-9.544,39.825,6.813,52.419,16.322,12.567,39.735,9.56,52.351-6.725,12.642-16.319,9.662-39.797-6.657-52.439l-.088-.068Zm-42.8,55.468c-14.228-10.988-16.854-31.43-5.865-45.658s31.43-16.854,45.658-5.865c14.201,10.968,16.848,31.36,5.917,45.59-10.969,14.243-31.407,16.896-45.649,5.927l-.047-.036-.013,.041Z" style="fill:#263238;"></path><path d="M57.545,229.814c.059,.187,2.178,12.6,6.481,13.733,2.051,.54,18.505,.243,18.505,.243l1.458-2.288,2.476,2.288h10.454l-5.974-10.405,.61-16.992-34.01,13.421Z" style="opacity:.3;"></path><path d="M89.667,199.529c3.694-7.029,1.599-19.739-6.562-22.121-7.337-2.142-18.971,.052-18.533,13.186,.439,13.134-2.628,11.76-5.942,20.194-3.479,8.855-2.46,20.512,3.425,30.053h16.251l2.966-4.27,3.513,4.27h14.108c-6.963-9.661-2.801-13.433-1.957-22.204,.844-8.771-10.444-13.066-7.269-19.109Z" style="fill:#263238;"></path><path d="M72.958,179.834c-.434-1.004-1.317-1.91-2.409-1.98-.561-.036-1.11,.15-1.641,.333l-.1,.694c-.427,1.087-1.303,1.925-1.96,2.891s-1.094,2.258-.535,3.284c.418,.767,1.304,1.182,2.173,1.274,1.578,.167,3.206-.63,4.09-1.948s1.013-3.092,.383-4.549Z" style="fill:#407BFF;"></path><path d="M71.057,184.736c.535-1.175,.903-3.851,.655-4.852-.367-1.477-1.402-2.709-2.589-3.66-.602-.483-1.259-.912-1.99-1.159-1.199-.405-2.515-.293-3.751-.018-1.401,.312-2.799,.854-3.817,1.866-1.382,1.374-1.872,3.573-1.203,5.404s2.46,3.197,4.402,3.357c-1.216,.352-2.373,.907-3.408,1.635-.091,.064-.189,.143-.2,.254-.01,.105,.063,.199,.137,.275,.639,.658,1.614,.9,2.53,.846s1.794-.366,2.658-.676c-.267,.888-.534,1.775-.8,2.663-.082,.274-.165,.565-.088,.84,.175,.622,1.006,.753,1.642,.64,1.947-.347,3.544-1.829,4.495-3.562,.656-1.197,1.04-2.513,1.329-3.853Z" style="fill:#263238;"></path></g></g></svg>
