<svg xmlns="http://www.w3.org/2000/svg" viewBox="0 0 500 500"><g id="freepik--background-complete--inject-23"><rect y="382.4" width="500" height="0.25" style="fill:#ebebeb"></rect><path d="M237,337.8H43.91a5.71,5.71,0,0,1-5.7-5.71V60.66A5.71,5.71,0,0,1,43.91,55H237a5.71,5.71,0,0,1,5.71,5.71V332.09A5.71,5.71,0,0,1,237,337.8ZM43.91,55.2a5.46,5.46,0,0,0-5.45,5.46V332.09a5.46,5.46,0,0,0,5.45,5.46H237a5.47,5.47,0,0,0,5.46-5.46V60.66A5.47,5.47,0,0,0,237,55.2Z" style="fill:#ebebeb"></path><path d="M453.31,337.8H260.21a5.72,5.72,0,0,1-5.71-5.71V60.66A5.72,5.72,0,0,1,260.21,55h193.1A5.71,5.71,0,0,1,459,60.66V332.09A5.71,5.71,0,0,1,453.31,337.8ZM260.21,55.2a5.47,5.47,0,0,0-5.46,5.46V332.09a5.47,5.47,0,0,0,5.46,5.46h193.1a5.47,5.47,0,0,0,5.46-5.46V60.66a5.47,5.47,0,0,0-5.46-5.46Z" style="fill:#ebebeb"></path><rect x="418.33" y="391.92" width="31.57" height="0.25" style="fill:#ebebeb"></rect><rect x="301.93" y="389.21" width="33.41" height="0.25" style="fill:#ebebeb"></rect><rect x="396.59" y="401.21" width="62.43" height="0.25" style="fill:#ebebeb"></rect><rect x="52.46" y="399.53" width="19.23" height="0.25" style="fill:#ebebeb"></rect><rect x="80.6" y="399.53" width="30.29" height="0.25" style="fill:#ebebeb"></rect><rect x="189.58" y="395.31" width="54.56" height="0.25" style="fill:#ebebeb"></rect><polygon points="272.26 118.13 215.28 175.12 215.28 364.91 415.27 364.91 415.27 118.13 272.26 118.13" style="fill:#fff"></polygon><path d="M415.27,365.45h-200a.54.54,0,0,1-.54-.54V175.12a.53.53,0,0,1,.16-.38l57-57a.57.57,0,0,1,.38-.16h143a.54.54,0,0,1,.54.54V364.91A.54.54,0,0,1,415.27,365.45Zm-199.45-1.07H414.73V118.67H272.49l-56.67,56.67Z" style="fill:#e0e0e0"></path><polygon points="215.28 175.12 275.07 182.83 272.26 118.13 215.28 175.12" style="fill:#e6e6e6"></polygon><polygon points="215.28 175.12 272.26 175.12 272.26 118.13 215.28 175.12" style="fill:#fff"></polygon><path d="M272.26,175.65h-57a.54.54,0,0,1-.5-.33.52.52,0,0,1,.12-.58l57-57a.56.56,0,0,1,.59-.12.55.55,0,0,1,.33.5v57A.54.54,0,0,1,272.26,175.65Zm-55.68-1.07h55.15V119.43Z" style="fill:#e0e0e0"></path><path d="M326.84,257.19l34-34a8.18,8.18,0,1,0-11.57-11.57l-34,34-34-34a8.18,8.18,0,0,0-11.57,11.57l34,34-34,34a8.18,8.18,0,0,0,11.57,11.57l34-34,34,34a8.18,8.18,0,1,0,11.57-11.57Z" style="fill:#f0f0f0"></path><path d="M223,229h0a10.23,10.23,0,0,1-14.46,0l-32.81-32.82,14.46-14.46L223,214.58A10.23,10.23,0,0,1,223,229Z" style="fill:#f0f0f0"></path><path d="M176,187.63h20.45a0,0,0,0,1,0,0v1.89a7.39,7.39,0,0,1-7.39,7.39h-5.67a7.39,7.39,0,0,1-7.39-7.39v-1.89A0,0,0,0,1,176,187.63Z" transform="translate(-81.4 188.02) rotate(-45)" style="fill:#e0e0e0"></path><path d="M84.71,90.71a71,71,0,1,0,100.46,0A71,71,0,0,0,84.71,90.71Zm96.36,96.36a65.23,65.23,0,1,1,0-92.25A65.23,65.23,0,0,1,181.07,187.07Z" style="fill:#e0e0e0"></path><path d="M172.26,180.65a2.38,2.38,0,0,1-1.68-4.06,50.48,50.48,0,0,0,0-71.29,2.38,2.38,0,1,1,3.36-3.36,55.22,55.22,0,0,1,0,78A2.38,2.38,0,0,1,172.26,180.65Z" style="fill:#e0e0e0"></path><path d="M83.58,155.53a2.37,2.37,0,0,1-2.31-1.83,55.37,55.37,0,0,1,7.6-43.11,2.38,2.38,0,0,1,4,2.62,50.65,50.65,0,0,0-7,39.4,2.36,2.36,0,0,1-1.76,2.86A2.64,2.64,0,0,1,83.58,155.53Z" style="fill:#e0e0e0"></path><path d="M97.62,180.65a2.38,2.38,0,0,1-1.68-.7,54.8,54.8,0,0,1-10.5-14.64,2.37,2.37,0,0,1,4.26-2.1,50.51,50.51,0,0,0,9.6,13.38,2.38,2.38,0,0,1,0,3.36A2.41,2.41,0,0,1,97.62,180.65Z" style="fill:#e0e0e0"></path><path d="M196.15,319.72h13.22a0,0,0,0,1,0,0v30.7a5.92,5.92,0,0,1-5.92,5.92h-1.39a5.92,5.92,0,0,1-5.92-5.92v-30.7a0,0,0,0,1,0,0Z" transform="translate(298.41 -44.37) rotate(45)" style="fill:#f0f0f0"></path><path d="M207,324.2H220.2a0,0,0,0,1,0,0v.63a5.37,5.37,0,0,1-5.37,5.37h-2.48a5.37,5.37,0,0,1-5.37-5.37v-.63A0,0,0,0,1,207,324.2Z" transform="translate(293.92 -55.19) rotate(45)" style="fill:#e0e0e0"></path><path d="M284.35,269.7l-21.9,21.89A13.74,13.74,0,0,0,281.88,311l8.86-8.85A47.07,47.07,0,0,0,284.35,269.7Z" style="fill:#f0f0f0"></path><path d="M292.6,290.82a45.94,45.94,0,1,0-42.64,49A45.94,45.94,0,0,0,292.6,290.82Zm-87.91,6.12a42.18,42.18,0,1,1,45,39.15A42.18,42.18,0,0,1,204.69,296.94Z" style="fill:#e0e0e0"></path><path d="M223.38,320.91a35.58,35.58,0,0,1-12.19-24.42,1.54,1.54,0,1,1,3.07-.21A32.64,32.64,0,0,0,249,326.53a1.53,1.53,0,1,1,.21,3.06A35.53,35.53,0,0,1,223.38,320.91Z" style="fill:#e0e0e0"></path><path d="M278.64,286a1.51,1.51,0,0,1-.47-.75,32.72,32.72,0,0,0-16.27-20.1,1.54,1.54,0,0,1,1.42-2.73,35.82,35.82,0,0,1,17.81,22,1.53,1.53,0,0,1-1.07,1.89A1.56,1.56,0,0,1,278.64,286Z" style="fill:#e0e0e0"></path><path d="M243.39,261.13a1.56,1.56,0,0,1-.52-1.06,1.54,1.54,0,0,1,1.42-1.64,35.88,35.88,0,0,1,11.6,1.09,1.54,1.54,0,1,1-.79,3,32.48,32.48,0,0,0-10.59-1A1.58,1.58,0,0,1,243.39,261.13Z" style="fill:#e0e0e0"></path></g><g id="freepik--Shadow--inject-23"><ellipse id="freepik--path--inject-23" cx="250" cy="416.24" rx="193.89" ry="11.32" style="fill:#f5f5f5"></ellipse></g><g id="freepik--character-2--inject-23"><path d="M423.29,399.43c-8.81,0-17.47-1.81-21.67-7.29-19.88-26-19.7-78.3-19.53-128.91.1-27.25,2.25-53-.78-73-1.78-11.79-8-19.88-14.28-24.06-9.32-6.16-22.12-2.85-27.59-1.44a5.32,5.32,0,1,1-2.66-10.3c6.83-1.77,22.85-5.9,36.11,2.86,8.95,5.91,16.69,16.46,18.94,31.35,3.15,20.8,1,46.93.9,74.59-.17,48.83-.34,99.32,17.34,122.41,1.43,1.86,7,3.53,16.25,3.05.82,0,1.62-.09,2.41-.16a5.22,5.22,0,0,1-.54-2.33,5.32,5.32,0,0,1,5.32-5.32c11.63,0,17.75,1,18.93,6.32.34,1.53.52,5.37-5.1,8C443.14,397.17,433.12,399.43,423.29,399.43Z" style="fill:#407BFF"></path><polygon points="306.87 404.02 296.02 399.75 301.74 380.94 312.6 385.2 306.87 404.02" style="fill:#ffc3bd"></polygon><path d="M295.76,398.6,308,403.4a.75.75,0,0,1,.46.8l-1.2,7.62a1.25,1.25,0,0,1-1.7.95c-3.07-1.27-7.88-3.37-11.77-4.9-2.39-.94-6.94-2.44-10.25-3.74s-2.45-4.74-1-4.5c6.59,1.06,9.11-.07,11.74-1.05A2,2,0,0,1,295.76,398.6Z" style="fill:#263238"></path><polygon points="312.6 385.21 301.74 380.94 298.79 390.64 309.65 394.91 312.6 385.21" style="opacity:0.2"></polygon><path d="M326.17,239.61s-9.82,48.54-13.57,72.48c-4.22,26.83-15.37,75.84-15.37,75.84l14.43,5.67s20.61-50.18,23.48-74.48c8.65-19.75,25.85-77.87,25.85-77.87Z" style="fill:#407BFF"></path><polygon points="296.53 388.01 312.37 394.24 315.08 389.44 297.37 382.1 296.53 388.01" style="fill:#263238"></polygon><path d="M292.65,398.81a2.59,2.59,0,0,1-1.36-1,1.24,1.24,0,0,1,0-1.14.62.62,0,0,1,.52-.4c1.05-.11,3,2.45,3.19,2.75a.2.2,0,0,1,0,.22.2.2,0,0,1-.2.09A10.18,10.18,0,0,1,292.65,398.81Zm-.53-2.09a.5.5,0,0,0-.26-.05c-.06,0-.13,0-.2.17a.8.8,0,0,0,0,.78c.29.53,1.29,1,2.74,1.24A7.86,7.86,0,0,0,292.12,396.72Z" style="fill:#407BFF"></path><path d="M294.78,399.32a.16.16,0,0,1-.08-.06c-.64-.76-1.54-3.11-1-3.92a.66.66,0,0,1,.79-.25,1.1,1.1,0,0,1,.7.55c.62,1.11-.08,3.45-.11,3.55a.21.21,0,0,1-.16.14A.14.14,0,0,1,294.78,399.32Zm-.34-3.82-.08,0c-.26-.06-.32,0-.35.09-.3.48.19,2.18.76,3.11a4.82,4.82,0,0,0,0-2.84A.7.7,0,0,0,294.44,395.5Z" style="fill:#407BFF"></path><path d="M347.34,269c-5.44,6.74-7.59,23.92-7.57,38.24,3.67-10.11,7.88-22.95,11.58-34.61Z" style="opacity:0.2"></path><polygon points="372.17 405.83 360.51 405.83 358.96 386.23 370.62 386.23 372.17 405.83" style="fill:#ffc3bd"></polygon><path d="M359.85,404.85H373a.73.73,0,0,1,.72.58l1.67,7.52a1.25,1.25,0,0,1-1.24,1.51c-3.32-.06-8.55-.26-12.73-.26-2.58,0-7.36.27-10.91.27s-4-3.51-2.57-3.83c6.53-1.43,8.47-3.39,10.55-5.27A2.06,2.06,0,0,1,359.85,404.85Z" style="fill:#263238"></path><polygon points="370.62 386.23 358.95 386.23 359.76 396.34 371.43 396.34 370.62 386.23" style="opacity:0.2"></polygon><path d="M340.29,240.22s6.46,54.09,7.82,73.56c1.89,27.1,9.2,80.6,9.2,80.6h15.5s1.66-54.64-1.14-78.95c3.86-21.21,2.64-73.58,2.64-73.58Z" style="fill:#407BFF"></path><polygon points="356.69 394.71 373.71 394.71 374.48 389.26 355.31 388.9 356.69 394.71" style="fill:#263238"></polygon><path d="M357,406.18a2.58,2.58,0,0,1-1.63-.43,1.25,1.25,0,0,1-.42-1.06.64.64,0,0,1,.35-.57c.94-.48,3.67,1.2,4,1.39a.2.2,0,0,1,.1.2.23.23,0,0,1-.16.17A10,10,0,0,1,357,406.18Zm-1.26-1.75a.53.53,0,0,0-.26.05c-.05,0-.11.08-.12.23a.8.8,0,0,0,.27.73c.46.39,1.57.44,3,.15A8.08,8.08,0,0,0,355.77,404.43Z" style="fill:#407BFF"></path><path d="M359.2,405.88l-.1,0c-.87-.48-2.57-2.33-2.39-3.28a.65.65,0,0,1,.64-.52,1.07,1.07,0,0,1,.85.25c1,.81,1.19,3.25,1.2,3.35a.22.22,0,0,1-.09.19A.23.23,0,0,1,359.2,405.88Zm-1.71-3.43h-.09c-.26,0-.28.16-.29.21-.11.55,1,2,1.84,2.62a4.86,4.86,0,0,0-1-2.66A.75.75,0,0,0,357.49,402.45Z" style="fill:#407BFF"></path><path d="M345.64,165.63h0l-9.34-.12c-3.14,0-6.26-.1-9.35-.15-.94,0-1.86-.06-2.79-.1.06,0,.1-.11.15-.16.66-.7,1.32-1.42,2-2.11q.51-.54,1-1.05c.31-.34.71-.72.92-1l.85-1.08a5.17,5.17,0,0,0-5.42-8.18l-1.85.5c-.57.17-1.14.36-1.71.55-1.12.39-2.22.82-3.31,1.29a49.09,49.09,0,0,0-6.35,3.38,45.63,45.63,0,0,0-5.95,4.53,39.42,39.42,0,0,0-5.31,5.91,9.07,9.07,0,0,0-1,1.72,8.76,8.76,0,0,0,4.52,11.53l.91.4a38.36,38.36,0,0,0,6.36,2.1c1.9.49,3.7.81,5.47,1.11s3.5.54,5.22.75,3.42.37,5.12.51c3.39.3,6.75.45,10.1.55s6.63.1,10.11-.06a10.42,10.42,0,0,0-.34-20.83Z" style="fill:#ffc3bd"></path><path d="M351.08,183.88c-8.07,9.2-27.49,5.76-27.49,5.76l1.07-22.92a101,101,0,0,1,20.26-2.35C356.32,164.35,357.54,176.5,351.08,183.88Z" style="fill:#263238"></path><path d="M329.54,176.83c-.48,3.7-1,8.68-1.31,15.38-4.21,21.3-5.78,36.39-2.06,47.4,2.94,3.63,41.25,2.93,48.14,2.23,4-9.9,4.42-38.32,4.89-62.21a13.77,13.77,0,0,0-11.45-13.82,92.49,92.49,0,0,0-26.12-.88A13.76,13.76,0,0,0,329.54,176.83Z" style="fill:#263238"></path><path d="M366.71,191.37c.13,7.28,5.41,18.91,11.35,24.81.36-6.15.59-12.82.77-19.55Z" style="opacity:0.2"></path><path d="M400.09,205.52l-.34-.8a76,76,0,0,0-4.89-9.67c-1.78-3-3.7-5.83-5.69-8.56s-4.1-5.34-6.26-7.88c-1.1-1.26-2.19-2.52-3.34-3.74l-1.73-1.82L376,171.19a10.42,10.42,0,0,0-15.08,14.37l.3.33,5.87,6.53c2,2.22,3.91,4.48,5.81,6.73.92,1.13,1.87,2.26,2.73,3.41s1.77,2.26,2.63,3.4c1.24,1.73,2.44,3.45,3.51,5.14a25.68,25.68,0,0,1-.62,2.53,72.68,72.68,0,0,1-2.53,7.14c-1,2.47-2.06,5-3.16,7.49s-2.28,5.09-3.33,7.59l-.1.22a5.26,5.26,0,0,0,8.4,5.91,83,83,0,0,0,6.27-6.48q3-3.37,5.63-7.1c.89-1.25,1.74-2.55,2.58-3.9a45.2,45.2,0,0,0,2.39-4.25,39.75,39.75,0,0,0,2.1-4.92,22.39,22.39,0,0,0,1.28-6.71A7.49,7.49,0,0,0,400.09,205.52Z" style="fill:#ffc3bd"></path><path d="M368.43,165.94c13.49,2.31,22.28,20.57,22.28,20.57L374.45,204s-9.37-9.54-15-18.38C353.38,176,358.77,164.3,368.43,165.94Z" style="fill:#263238"></path><path d="M343.79,137.15c-2.26-3.79-3-9,1.14-14.31a4.2,4.2,0,0,1-4.12-2,24.79,24.79,0,0,1,16.09-5.6c12.1,0,13,4.67,12.59,7.86,8.28.53,14.32,22.06-6.67,25.87C350.81,136.32,343.79,137.15,343.79,137.15Z" style="fill:#263238"></path><path d="M368.73,123.49s3.37-3.44-.82-7.6a5.64,5.64,0,0,1,3.94,3.92C372.44,122.23,370.81,124.17,368.73,123.49Z" style="fill:#263238"></path><path d="M364.09,146.34c-.32,6.63-.92,14.17.19,19.46-1.72,2.71-6.12,5.83-14,6.53-2.8-1.59-6.5-5.48-5.21-7.48,3.35-2.15,4.77-8.66,3.81-13.53Z" style="fill:#ffc3bd"></path><path d="M360.25,147.59l-11.39,3.73a17.87,17.87,0,0,1,.05,6.28c3.4-.11,8.11-2.67,9.88-5.07A6.32,6.32,0,0,0,360.25,147.59Z" style="opacity:0.2"></path><path d="M367.41,135.84c-2.11,8.13-2.93,13-7.91,16.41-7.49,5.13-16.91-.62-17.28-9.21-.32-7.74,3.18-19.74,11.88-21.45A11.46,11.46,0,0,1,367.41,135.84Z" style="fill:#ffc3bd"></path><path d="M365.73,124.2c-3.57,2.54-8,13.3,1,17.62C374.81,134.72,372.72,124.2,365.73,124.2Z" style="fill:#263238"></path><path d="M367.79,125.49c1.53-7.08-16.34-10.74-22-2.47C343.87,128,366.71,132.4,367.79,125.49Z" style="fill:#263238"></path><path d="M354.46,144.47h0a17.28,17.28,0,0,0-5.88-1.49.21.21,0,0,0-.21.22.29.29,0,0,0,.27.24,16.75,16.75,0,0,1,5.64,1.42.24.24,0,0,0,.31-.11A.21.21,0,0,0,354.46,144.47Z" style="fill:#263238"></path><path d="M369.36,144.73a8,8,0,0,1-5.56,2.51c-2.8.06-3.51-2.61-2.16-4.89,1.22-2,4.14-4.56,6.68-3.54S371.12,142.82,369.36,144.73Z" style="fill:#ffc3bd"></path><path d="M354.48,135.7c-.13.67-.59,1.15-1,1.06s-.68-.7-.55-1.37.59-1.14,1-1S354.61,135,354.48,135.7Z" style="fill:#263238"></path><path d="M346.91,134.23c-.13.67-.59,1.14-1,1.06s-.69-.7-.56-1.37.59-1.15,1-1.06S347,133.56,346.91,134.23Z" style="fill:#263238"></path><path d="M349.25,135a24.53,24.53,0,0,1-4.32,5.11c1,1.33,3.21,1.07,3.21,1.07Z" style="fill:#ed847e"></path><path d="M353.39,131.81a.43.43,0,0,1,.4.12,3.19,3.19,0,0,0,2.66,1.15.41.41,0,0,1,.46.34.39.39,0,0,1-.34.45,4,4,0,0,1-3.38-1.41.39.39,0,0,1,0-.56A.51.51,0,0,1,353.39,131.81Z" style="fill:#263238"></path><path d="M344.57,129.59a.36.36,0,0,1-.21-.13.4.4,0,0,1,.07-.57,4,4,0,0,1,3.57-.77.41.41,0,0,1,.26.51.43.43,0,0,1-.51.25h0a3.19,3.19,0,0,0-2.83.64A.35.35,0,0,1,344.57,129.59Z" style="fill:#263238"></path><path d="M376.85,235.56l-8.59-.06,4.44,9.86s7.33-1.57,6.93-5.55Z" style="fill:#ffc3bd"></path><path d="M363.89,242.27l1.41,2.78a3.34,3.34,0,0,0,4.21,1.58l3.19-1.27-4.44-9.86-3.41,2.6A3.33,3.33,0,0,0,363.89,242.27Z" style="fill:#ffc3bd"></path><path d="M311.46,228.3a5.33,5.33,0,0,1-3.81-9c3.82-3.94,7.27-7,10.31-9.67,7.34-6.47,9.87-9,9.63-13.85a48.72,48.72,0,0,0-1.9-8.82c-2.19-8.05-4.67-17.16-.42-24.47,2.28-3.93,6.15-6.62,11.51-8a5.32,5.32,0,0,1,2.66,10.3c-3.77,1-4.68,2.53-5,3.05-2,3.45-.07,10.59,1.49,16.32a55.55,55.55,0,0,1,2.26,11.1c.5,10.25-5.55,15.59-13.22,22.35-2.89,2.56-6.18,5.46-9.72,9.1A5.29,5.29,0,0,1,311.46,228.3Z" style="fill:#407BFF"></path><path d="M323.13,151.9l8.32-2.13-1.94,10.64s-7.49.23-8.05-3.72Z" style="fill:#ffc3bd"></path><path d="M337.29,155.41l-.64,2.78a3.49,3.49,0,0,1-3.88,2.67l-3.26-.45,1.94-10.64,3.82,1.65A3.49,3.49,0,0,1,337.29,155.41Z" style="fill:#ffc3bd"></path><rect x="289.06" y="203.83" width="5.5" height="46.89" rx="2.59" transform="translate(246.1 -139.77) rotate(44.99)" style="fill:#263238"></rect><rect x="304.41" y="219.18" width="5.5" height="46.89" rx="2.59" transform="translate(261.53 -146.14) rotate(45)" style="fill:#263238"></rect><path d="M293.18,203h29.39a7.17,7.17,0,0,1,7.17,7.17v25.69a7.17,7.17,0,0,1-7.17,7.17H293.18a0,0,0,0,1,0,0V203a0,0,0,0,1,0,0Z" transform="translate(-66.44 285.55) rotate(-45)" style="fill:#407BFF"></path><path d="M293.18,203h29.39a7.17,7.17,0,0,1,7.17,7.17v25.69a7.17,7.17,0,0,1-7.17,7.17H293.18a0,0,0,0,1,0,0V203a0,0,0,0,1,0,0Z" transform="translate(-66.44 285.55) rotate(-45)" style="fill:#fff;opacity:0.7000000000000001"></path><path d="M291.58,214.56l-7.2,7.19,28.31,28.31,7.19-7.2a5.74,5.74,0,0,0-1.39-2.22L293.8,216A5.74,5.74,0,0,0,291.58,214.56Z" style="fill:#407BFF;opacity:0.2"></path><rect x="293.5" y="211.51" width="11.97" height="46.89" rx="5.62" transform="translate(-78.42 280.59) rotate(-45)" style="fill:#407BFF"></rect></g></svg>